<svg xmlns="http://www.w3.org/2000/svg" xmlns:xlink="http://www.w3.org/1999/xlink" width="500" zoomAndPan="magnify" viewBox="0 0 375 374.999991" height="500" preserveAspectRatio="xMidYMid meet" version="1.0"><defs><g/><clipPath id="7f8bb59ab0"><path d="M 15.882812 111.070312 L 187.628906 111.070312 L 187.628906 246.820312 L 15.882812 246.820312 Z M 15.882812 111.070312 " clip-rule="nonzero"/></clipPath></defs><g clip-path="url(#7f8bb59ab0)"><path fill="#442a00" d="M 49.289062 150.011719 C 45.035156 150.328125 34.652344 151.761719 26.664062 158.179688 C 20.679688 162.992188 15.917969 170.480469 15.882812 182.246094 C 15.847656 193.65625 20.933594 200.820312 27.265625 205.359375 C 34.429688 210.496094 43.363281 212.046875 48.042969 212.515625 C 48.972656 215.667969 49.605469 219.636719 49.867188 223.945312 C 50.152344 228.636719 49.980469 233.722656 49.171875 238.636719 L 47.832031 246.800781 L 55.359375 243.375 C 63.550781 239.605469 78.855469 236.484375 94.921875 236.667969 C 98.960938 236.714844 103.035156 237 107.09375 237.417969 C 109.804688 237.695312 112.488281 237.996094 115.164062 238.410156 C 118.605469 238.941406 121.917969 239.566406 125.226562 240.445312 C 128.71875 241.371094 132 242.332031 135.242188 243.820312 C 132.746094 241.304688 130.148438 239.105469 127.140625 237.164062 C 124.164062 235.242188 120.992188 233.730469 117.640625 232.414062 C 115 231.375 112.285156 230.5625 109.503906 229.910156 C 107.664062 229.480469 105.800781 229.171875 103.929688 228.921875 C 96.824219 227.960938 89.628906 227.953125 82.847656 228.421875 C 73.691406 229.050781 65.277344 230.714844 58.699219 232.742188 C 58.890625 229.566406 58.878906 226.414062 58.695312 223.410156 C 58.289062 216.710938 57.011719 210.714844 55.3125 206.625 L 54.183594 203.902344 L 51.238281 203.902344 C 51.238281 203.902344 40.382812 203.960938 32.335938 198.25 C 27.941406 195.128906 24.5 190.144531 24.472656 182.246094 C 24.445312 173.75 27.683594 168.25 31.980469 164.746094 C 37.921875 159.894531 45.609375 158.621094 49.210938 158.285156 C 49.3125 159.472656 49.460938 160.652344 49.660156 161.808594 C 51.253906 171.085938 55.71875 178.972656 62.144531 182.878906 C 56.929688 178.167969 54.324219 170.191406 54.242188 161.398438 C 54.175781 154.214844 55.984375 146.589844 59.859375 139.804688 C 61.957031 136.128906 64.722656 132.792969 68.128906 129.878906 C 74.75 124.230469 84.007812 120.480469 96.542969 120.625 C 110.121094 120.710938 119.199219 124.824219 125.214844 130.433594 C 137.054688 141.476562 137.058594 157.898438 137.058594 157.898438 L 137.058594 163.339844 L 142.457031 162.691406 C 142.457031 162.691406 156.632812 160.898438 167.355469 166.769531 C 173.335938 170.046875 178.050781 175.953125 178.09375 186.3125 C 178.175781 196.214844 174.632812 201.933594 169.742188 205.078125 C 165.71875 207.664062 160.976562 208.550781 156.957031 208.933594 C 153.125 209.296875 149.898438 209.179688 148.40625 209.085938 C 148.621094 208.78125 148.832031 208.464844 149.03125 208.144531 C 150.097656 206.417969 150.929688 204.558594 151.472656 202.5625 C 151.867188 201.113281 152.160156 199.660156 152.234375 198.117188 C 152.390625 194.855469 151.90625 191.636719 150.660156 188.191406 C 150.542969 190.125 150.199219 191.828125 149.765625 193.574219 C 149.109375 196.199219 148.027344 198.4375 146.765625 200.632812 C 145.941406 202.0625 144.980469 203.347656 143.980469 204.621094 C 143.316406 205.464844 142.617188 206.269531 141.921875 207.078125 C 140.125 209.175781 138.21875 211.125 135.957031 212.734375 C 132.328125 215.316406 128.378906 217.273438 123.894531 218.011719 C 128.742188 218.808594 133.542969 218.359375 138.066406 216.703125 C 139.664062 216.117188 141.167969 215.347656 142.589844 214.445312 C 141.941406 217.398438 141.605469 220.4375 141.660156 223.601562 C 141.757812 229.355469 142.871094 235.1875 144.230469 241.257812 C 144.570312 235.238281 145.230469 229.546875 146.484375 224.109375 C 147.082031 221.523438 147.835938 219.078125 148.84375 216.757812 C 150.898438 217.09375 153.957031 217.445312 157.46875 217.351562 C 162.796875 217.207031 169.066406 215.890625 174.453125 212.59375 C 181.523438 208.265625 187.269531 200.433594 187.382812 186.3125 C 187.433594 174.886719 183.230469 167.328125 177.457031 162.269531 C 168.011719 153.992188 153.753906 152.851562 146.28125 152.882812 C 145.316406 145.890625 142.148438 132.988281 131.792969 123.367188 C 124.378906 116.480469 113.292969 111.152344 96.585938 111.113281 C 83.816406 111.125 73.804688 114.429688 66.320312 119.730469 C 63.890625 121.453125 61.707031 123.371094 59.820312 125.480469 C 56.882812 128.765625 54.546875 132.414062 52.867188 136.292969 C 50.945312 140.71875 49.761719 145.382812 49.289062 150.011719 Z M 49.289062 150.011719 " fill-opacity="1" fill-rule="evenodd"/></g><g fill="#442a00" fill-opacity="1"><g transform="translate(178.134664, 166.047781)"><g/></g></g><g fill="#442a00" fill-opacity="1"><g transform="translate(188.715272, 166.047781)"><g><path d="M 19.8125 -36.34375 C 19.34375 -36.34375 18.796875 -36.25 18.171875 -36.0625 C 17.554688 -35.875 16.925781 -35.515625 16.28125 -34.984375 C 15.644531 -34.460938 15.015625 -33.726562 14.390625 -32.78125 C 13.773438 -31.832031 13.222656 -30.609375 12.734375 -29.109375 C 12.242188 -27.609375 11.847656 -25.78125 11.546875 -23.625 C 11.242188 -21.476562 11.09375 -18.941406 11.09375 -16.015625 C 11.09375 -13.234375 11.242188 -10.816406 11.546875 -8.765625 C 11.847656 -6.722656 12.25 -4.984375 12.75 -3.546875 C 13.257812 -2.109375 13.84375 -0.929688 14.5 -0.015625 C 15.15625 0.890625 15.84375 1.59375 16.5625 2.09375 C 17.28125 2.601562 18 2.953125 18.71875 3.140625 C 19.445312 3.335938 20.128906 3.4375 20.765625 3.4375 C 21.429688 3.4375 22.109375 3.347656 22.796875 3.171875 C 23.484375 3.003906 24.160156 2.753906 24.828125 2.421875 C 25.492188 2.097656 26.128906 1.703125 26.734375 1.234375 C 27.347656 0.773438 27.910156 0.242188 28.421875 -0.359375 L 29.59375 0.796875 C 29.070312 1.429688 28.445312 2.078125 27.71875 2.734375 C 27 3.398438 26.160156 4.003906 25.203125 4.546875 C 24.253906 5.085938 23.1875 5.53125 22 5.875 C 20.8125 6.21875 19.5 6.390625 18.0625 6.390625 C 15.800781 6.390625 13.703125 5.957031 11.765625 5.09375 C 9.835938 4.238281 8.15625 2.90625 6.71875 1.09375 C 5.28125 -0.71875 4.148438 -3.039062 3.328125 -5.875 C 2.515625 -8.71875 2.109375 -12.113281 2.109375 -16.0625 C 2.109375 -19.78125 2.535156 -23.039062 3.390625 -25.84375 C 4.253906 -28.644531 5.425781 -30.988281 6.90625 -32.875 C 8.382812 -34.757812 10.117188 -36.175781 12.109375 -37.125 C 14.109375 -38.082031 16.238281 -38.5625 18.5 -38.5625 C 19.988281 -38.5625 21.347656 -38.421875 22.578125 -38.140625 C 23.804688 -37.859375 24.867188 -37.445312 25.765625 -36.90625 C 26.660156 -36.363281 27.351562 -35.691406 27.84375 -34.890625 C 28.332031 -34.085938 28.578125 -33.179688 28.578125 -32.171875 C 28.578125 -31.703125 28.5 -31.210938 28.34375 -30.703125 C 28.1875 -30.203125 27.945312 -29.738281 27.625 -29.3125 C 27.3125 -28.894531 26.921875 -28.550781 26.453125 -28.28125 C 25.992188 -28.019531 25.457031 -27.890625 24.84375 -27.890625 C 24.289062 -27.890625 23.863281 -28.007812 23.5625 -28.25 C 23.257812 -28.488281 23.035156 -28.804688 22.890625 -29.203125 C 22.742188 -29.597656 22.648438 -30.046875 22.609375 -30.546875 C 22.566406 -31.054688 22.535156 -31.578125 22.515625 -32.109375 C 22.503906 -32.648438 22.46875 -33.171875 22.40625 -33.671875 C 22.34375 -34.179688 22.21875 -34.632812 22.03125 -35.03125 C 21.851562 -35.425781 21.59375 -35.742188 21.25 -35.984375 C 20.90625 -36.222656 20.425781 -36.34375 19.8125 -36.34375 Z M 19.8125 -36.34375 "/></g></g></g><g fill="#442a00" fill-opacity="1"><g transform="translate(216.170677, 166.047781)"><g><path d="M 1.578125 -13.203125 C 1.578125 -15.460938 1.898438 -17.4375 2.546875 -19.125 C 3.203125 -20.820312 4.078125 -22.238281 5.171875 -23.375 C 6.265625 -24.507812 7.53125 -25.359375 8.96875 -25.921875 C 10.414062 -26.492188 11.929688 -26.78125 13.515625 -26.78125 C 15.097656 -26.78125 16.609375 -26.515625 18.046875 -25.984375 C 19.492188 -25.460938 20.765625 -24.660156 21.859375 -23.578125 C 22.953125 -22.492188 23.820312 -21.117188 24.46875 -19.453125 C 25.125 -17.796875 25.453125 -15.832031 25.453125 -13.5625 C 25.453125 -11.3125 25.125 -9.316406 24.46875 -7.578125 C 23.820312 -5.847656 22.953125 -4.390625 21.859375 -3.203125 C 20.765625 -2.015625 19.492188 -1.113281 18.046875 -0.5 C 16.609375 0.101562 15.097656 0.40625 13.515625 0.40625 C 11.929688 0.40625 10.414062 0.117188 8.96875 -0.453125 C 7.53125 -1.023438 6.265625 -1.878906 5.171875 -3.015625 C 4.078125 -4.148438 3.203125 -5.566406 2.546875 -7.265625 C 1.898438 -8.972656 1.578125 -10.953125 1.578125 -13.203125 Z M 17.4375 -13.46875 C 17.4375 -14.84375 17.390625 -16.171875 17.296875 -17.453125 C 17.203125 -18.734375 17.015625 -19.867188 16.734375 -20.859375 C 16.460938 -21.859375 16.066406 -22.65625 15.546875 -23.25 C 15.035156 -23.84375 14.359375 -24.140625 13.515625 -24.140625 C 12.671875 -24.140625 11.988281 -23.828125 11.46875 -23.203125 C 10.957031 -22.578125 10.5625 -21.75 10.28125 -20.71875 C 10.007812 -19.695312 9.832031 -18.53125 9.75 -17.21875 C 9.664062 -15.914062 9.625 -14.578125 9.625 -13.203125 C 9.625 -11.828125 9.664062 -10.484375 9.75 -9.171875 C 9.832031 -7.859375 10.007812 -6.679688 10.28125 -5.640625 C 10.5625 -4.609375 10.957031 -3.78125 11.46875 -3.15625 C 11.988281 -2.53125 12.671875 -2.21875 13.515625 -2.21875 C 14.359375 -2.21875 15.035156 -2.539062 15.546875 -3.1875 C 16.066406 -3.84375 16.460938 -4.703125 16.734375 -5.765625 C 17.015625 -6.835938 17.203125 -8.046875 17.296875 -9.390625 C 17.390625 -10.734375 17.4375 -12.09375 17.4375 -13.46875 Z M 17.4375 -13.46875 "/></g></g></g><g fill="#442a00" fill-opacity="1"><g transform="translate(241.898486, 166.047781)"><g><path d="M 1.578125 -13.203125 C 1.578125 -15.460938 1.898438 -17.4375 2.546875 -19.125 C 3.203125 -20.820312 4.078125 -22.238281 5.171875 -23.375 C 6.265625 -24.507812 7.53125 -25.359375 8.96875 -25.921875 C 10.414062 -26.492188 11.929688 -26.78125 13.515625 -26.78125 C 15.097656 -26.78125 16.609375 -26.515625 18.046875 -25.984375 C 19.492188 -25.460938 20.765625 -24.660156 21.859375 -23.578125 C 22.953125 -22.492188 23.820312 -21.117188 24.46875 -19.453125 C 25.125 -17.796875 25.453125 -15.832031 25.453125 -13.5625 C 25.453125 -11.3125 25.125 -9.316406 24.46875 -7.578125 C 23.820312 -5.847656 22.953125 -4.390625 21.859375 -3.203125 C 20.765625 -2.015625 19.492188 -1.113281 18.046875 -0.5 C 16.609375 0.101562 15.097656 0.40625 13.515625 0.40625 C 11.929688 0.40625 10.414062 0.117188 8.96875 -0.453125 C 7.53125 -1.023438 6.265625 -1.878906 5.171875 -3.015625 C 4.078125 -4.148438 3.203125 -5.566406 2.546875 -7.265625 C 1.898438 -8.972656 1.578125 -10.953125 1.578125 -13.203125 Z M 17.4375 -13.46875 C 17.4375 -14.84375 17.390625 -16.171875 17.296875 -17.453125 C 17.203125 -18.734375 17.015625 -19.867188 16.734375 -20.859375 C 16.460938 -21.859375 16.066406 -22.65625 15.546875 -23.25 C 15.035156 -23.84375 14.359375 -24.140625 13.515625 -24.140625 C 12.671875 -24.140625 11.988281 -23.828125 11.46875 -23.203125 C 10.957031 -22.578125 10.5625 -21.75 10.28125 -20.71875 C 10.007812 -19.695312 9.832031 -18.53125 9.75 -17.21875 C 9.664062 -15.914062 9.625 -14.578125 9.625 -13.203125 C 9.625 -11.828125 9.664062 -10.484375 9.75 -9.171875 C 9.832031 -7.859375 10.007812 -6.679688 10.28125 -5.640625 C 10.5625 -4.609375 10.957031 -3.78125 11.46875 -3.15625 C 11.988281 -2.53125 12.671875 -2.21875 13.515625 -2.21875 C 14.359375 -2.21875 15.035156 -2.539062 15.546875 -3.1875 C 16.066406 -3.84375 16.460938 -4.703125 16.734375 -5.765625 C 17.015625 -6.835938 17.203125 -8.046875 17.296875 -9.390625 C 17.390625 -10.734375 17.4375 -12.09375 17.4375 -13.46875 Z M 17.4375 -13.46875 "/></g></g></g><g fill="#442a00" fill-opacity="1"><g transform="translate(267.626295, 166.047781)"><g><path d="M 11.1875 -19.765625 C 11.789062 -20.566406 12.4375 -21.382812 13.125 -22.21875 C 13.8125 -23.050781 14.550781 -23.800781 15.34375 -24.46875 C 16.132812 -25.144531 16.992188 -25.695312 17.921875 -26.125 C 18.859375 -26.5625 19.875 -26.78125 20.96875 -26.78125 C 21.945312 -26.78125 22.765625 -26.582031 23.421875 -26.1875 C 24.078125 -25.800781 24.601562 -25.335938 25 -24.796875 C 25.40625 -24.253906 25.691406 -23.691406 25.859375 -23.109375 C 26.023438 -22.523438 26.109375 -22.023438 26.109375 -21.609375 C 26.109375 -20.859375 26.007812 -20.070312 25.8125 -19.25 C 25.613281 -18.4375 25.273438 -17.628906 24.796875 -16.828125 C 24.328125 -16.023438 23.695312 -15.25 22.90625 -14.5 C 22.113281 -13.757812 21.113281 -13.078125 19.90625 -12.453125 C 21.53125 -9.035156 23.109375 -6.09375 24.640625 -3.625 C 26.171875 -1.15625 27.644531 0.867188 29.0625 2.453125 C 30.476562 4.046875 31.835938 5.222656 33.140625 5.984375 C 34.453125 6.742188 35.703125 7.125 36.890625 7.125 C 37.097656 7.125 37.300781 7.097656 37.5 7.046875 C 37.707031 6.992188 37.898438 6.929688 38.078125 6.859375 C 38.265625 6.796875 38.460938 6.710938 38.671875 6.609375 L 39.15625 7.5 C 38.6875 7.757812 38.210938 8.003906 37.734375 8.234375 C 37.253906 8.472656 36.703125 8.675781 36.078125 8.84375 C 35.460938 9.019531 34.75 9.160156 33.9375 9.265625 C 33.132812 9.367188 32.175781 9.421875 31.0625 9.421875 C 30.039062 9.421875 29.035156 9.296875 28.046875 9.046875 C 27.054688 8.804688 26.0625 8.375 25.0625 7.75 C 24.070312 7.132812 23.0625 6.3125 22.03125 5.28125 C 21.007812 4.25 19.960938 2.941406 18.890625 1.359375 C 17.816406 -0.210938 16.710938 -2.09375 15.578125 -4.28125 C 14.441406 -6.46875 13.265625 -9.019531 12.046875 -11.9375 C 13.691406 -13.164062 14.988281 -14.296875 15.9375 -15.328125 C 16.882812 -16.367188 17.597656 -17.3125 18.078125 -18.15625 C 18.554688 -19 18.859375 -19.75 18.984375 -20.40625 C 19.109375 -21.0625 19.171875 -21.617188 19.171875 -22.078125 C 19.171875 -22.148438 19.160156 -22.265625 19.140625 -22.421875 C 19.117188 -22.585938 19.0625 -22.75 18.96875 -22.90625 C 18.875 -23.0625 18.734375 -23.195312 18.546875 -23.3125 C 18.367188 -23.4375 18.117188 -23.5 17.796875 -23.5 C 17.160156 -23.5 16.515625 -23.226562 15.859375 -22.6875 C 15.210938 -22.144531 14.59375 -21.472656 14 -20.671875 C 13.40625 -19.867188 12.863281 -19.007812 12.375 -18.09375 C 11.894531 -17.175781 11.5 -16.335938 11.1875 -15.578125 L 11.1875 -2.265625 C 11.1875 -2.046875 11.148438 -1.78125 11.078125 -1.46875 C 11.003906 -1.15625 10.820312 -0.863281 10.53125 -0.59375 C 10.25 -0.320312 9.835938 -0.0859375 9.296875 0.109375 C 8.753906 0.304688 8.03125 0.40625 7.125 0.40625 C 6.207031 0.40625 5.488281 0.296875 4.96875 0.078125 C 4.457031 -0.128906 4.078125 -0.378906 3.828125 -0.671875 C 3.578125 -0.960938 3.421875 -1.257812 3.359375 -1.5625 C 3.304688 -1.875 3.28125 -2.128906 3.28125 -2.328125 L 3.28125 -35.59375 C 3.28125 -36.09375 3.160156 -36.523438 2.921875 -36.890625 C 2.691406 -37.265625 2.300781 -37.453125 1.75 -37.453125 C 1.457031 -37.453125 1.203125 -37.40625 0.984375 -37.3125 C 0.773438 -37.21875 0.550781 -37.078125 0.3125 -36.890625 L -0.203125 -37.5 C 0.191406 -37.832031 0.628906 -38.15625 1.109375 -38.46875 C 1.585938 -38.789062 2.113281 -39.070312 2.6875 -39.3125 C 3.269531 -39.550781 3.882812 -39.75 4.53125 -39.90625 C 5.1875 -40.0625 5.878906 -40.140625 6.609375 -40.140625 C 7.722656 -40.140625 8.585938 -39.988281 9.203125 -39.6875 C 9.828125 -39.382812 10.285156 -39.015625 10.578125 -38.578125 C 10.867188 -38.140625 11.039062 -37.675781 11.09375 -37.1875 C 11.15625 -36.695312 11.1875 -36.257812 11.1875 -35.875 Z M 11.1875 -19.765625 "/></g></g></g><g fill="#442a00" fill-opacity="1"><g transform="translate(294.333934, 166.047781)"><g><path d="M 11.453125 -2.328125 C 11.453125 -2.097656 11.410156 -1.820312 11.328125 -1.5 C 11.253906 -1.1875 11.078125 -0.890625 10.796875 -0.609375 C 10.515625 -0.328125 10.101562 -0.0859375 9.5625 0.109375 C 9.03125 0.304688 8.3125 0.40625 7.40625 0.40625 C 6.488281 0.40625 5.769531 0.296875 5.25 0.078125 C 4.738281 -0.128906 4.351562 -0.378906 4.09375 -0.671875 C 3.84375 -0.960938 3.6875 -1.257812 3.625 -1.5625 C 3.5625 -1.875 3.53125 -2.128906 3.53125 -2.328125 L 3.53125 -22.234375 C 3.53125 -22.734375 3.414062 -23.164062 3.1875 -23.53125 C 2.957031 -23.90625 2.566406 -24.09375 2.015625 -24.09375 C 1.722656 -24.09375 1.472656 -24.039062 1.265625 -23.9375 C 1.054688 -23.832031 0.832031 -23.6875 0.59375 -23.5 L 0.046875 -24.140625 C 0.441406 -24.472656 0.882812 -24.796875 1.375 -25.109375 C 1.863281 -25.429688 2.390625 -25.710938 2.953125 -25.953125 C 3.523438 -26.191406 4.140625 -26.390625 4.796875 -26.546875 C 5.453125 -26.703125 6.140625 -26.78125 6.859375 -26.78125 C 7.972656 -26.78125 8.835938 -26.628906 9.453125 -26.328125 C 10.078125 -26.023438 10.535156 -25.65625 10.828125 -25.21875 C 11.117188 -24.78125 11.296875 -24.3125 11.359375 -23.8125 C 11.421875 -23.3125 11.453125 -22.875 11.453125 -22.5 Z M 2.734375 -32.65625 C 2.734375 -33.132812 2.835938 -33.59375 3.046875 -34.03125 C 3.265625 -34.46875 3.566406 -34.847656 3.953125 -35.171875 C 4.347656 -35.503906 4.796875 -35.765625 5.296875 -35.953125 C 5.804688 -36.140625 6.363281 -36.234375 6.96875 -36.234375 C 7.550781 -36.234375 8.09375 -36.140625 8.59375 -35.953125 C 9.101562 -35.765625 9.546875 -35.503906 9.921875 -35.171875 C 10.304688 -34.847656 10.601562 -34.46875 10.8125 -34.03125 C 11.03125 -33.59375 11.140625 -33.132812 11.140625 -32.65625 C 11.140625 -32.15625 11.03125 -31.691406 10.8125 -31.265625 C 10.601562 -30.835938 10.304688 -30.460938 9.921875 -30.140625 C 9.546875 -29.828125 9.101562 -29.570312 8.59375 -29.375 C 8.09375 -29.1875 7.550781 -29.09375 6.96875 -29.09375 C 6.363281 -29.09375 5.804688 -29.1875 5.296875 -29.375 C 4.796875 -29.570312 4.347656 -29.828125 3.953125 -30.140625 C 3.566406 -30.460938 3.265625 -30.835938 3.046875 -31.265625 C 2.835938 -31.691406 2.734375 -32.15625 2.734375 -32.65625 Z M 2.734375 -32.65625 "/></g></g></g><g fill="#442a00" fill-opacity="1"><g transform="translate(307.736504, 166.047781)"><g><path d="M 18.390625 -12.84375 C 18.390625 -15.007812 18.289062 -16.738281 18.09375 -18.03125 C 17.894531 -19.332031 17.628906 -20.320312 17.296875 -21 C 16.972656 -21.6875 16.613281 -22.132812 16.21875 -22.34375 C 15.820312 -22.5625 15.421875 -22.671875 15.015625 -22.671875 C 14.515625 -22.671875 14.070312 -22.535156 13.6875 -22.265625 C 13.300781 -22.003906 12.960938 -21.703125 12.671875 -21.359375 C 12.390625 -21.015625 12.148438 -20.671875 11.953125 -20.328125 C 11.753906 -19.984375 11.585938 -19.722656 11.453125 -19.546875 L 11.453125 -2.328125 C 11.453125 -2.097656 11.414062 -1.820312 11.34375 -1.5 C 11.28125 -1.1875 11.113281 -0.890625 10.84375 -0.609375 C 10.582031 -0.328125 10.1875 -0.0859375 9.65625 0.109375 C 9.132812 0.304688 8.414062 0.40625 7.5 0.40625 C 6.59375 0.40625 5.875 0.296875 5.34375 0.078125 C 4.820312 -0.128906 4.421875 -0.378906 4.140625 -0.671875 C 3.867188 -0.960938 3.695312 -1.257812 3.625 -1.5625 C 3.5625 -1.875 3.53125 -2.128906 3.53125 -2.328125 L 3.53125 -22.234375 C 3.53125 -22.734375 3.414062 -23.164062 3.1875 -23.53125 C 2.957031 -23.90625 2.566406 -24.09375 2.015625 -24.09375 C 1.722656 -24.09375 1.472656 -24.039062 1.265625 -23.9375 C 1.054688 -23.832031 0.832031 -23.6875 0.59375 -23.5 L 0.046875 -24.140625 C 0.441406 -24.472656 0.882812 -24.796875 1.375 -25.109375 C 1.863281 -25.429688 2.390625 -25.710938 2.953125 -25.953125 C 3.523438 -26.191406 4.140625 -26.390625 4.796875 -26.546875 C 5.453125 -26.703125 6.140625 -26.78125 6.859375 -26.78125 C 7.972656 -26.78125 8.835938 -26.59375 9.453125 -26.21875 C 10.078125 -25.851562 10.535156 -25.410156 10.828125 -24.890625 C 11.117188 -24.378906 11.296875 -23.84375 11.359375 -23.28125 C 11.421875 -22.71875 11.453125 -22.25 11.453125 -21.875 C 12.085938 -22.78125 12.8125 -23.597656 13.625 -24.328125 C 13.945312 -24.628906 14.3125 -24.925781 14.71875 -25.21875 C 15.125 -25.519531 15.550781 -25.785156 16 -26.015625 C 16.457031 -26.242188 16.941406 -26.425781 17.453125 -26.5625 C 17.960938 -26.707031 18.484375 -26.78125 19.015625 -26.78125 C 20.179688 -26.78125 21.210938 -26.554688 22.109375 -26.109375 C 23.015625 -25.660156 23.773438 -24.910156 24.390625 -23.859375 C 25.015625 -22.804688 25.488281 -21.414062 25.8125 -19.6875 C 26.144531 -17.96875 26.3125 -15.828125 26.3125 -13.265625 C 26.3125 -10.765625 26.085938 -8.59375 25.640625 -6.75 C 25.191406 -4.914062 24.601562 -3.351562 23.875 -2.0625 C 23.15625 -0.769531 22.335938 0.28125 21.421875 1.09375 C 20.515625 1.914062 19.597656 2.554688 18.671875 3.015625 C 17.742188 3.484375 16.851562 3.804688 16 3.984375 C 15.15625 4.160156 14.421875 4.257812 13.796875 4.28125 L 13.515625 3.21875 C 14.035156 3.101562 14.515625 2.914062 14.953125 2.65625 C 15.390625 2.394531 15.785156 2.015625 16.140625 1.515625 C 16.503906 1.023438 16.820312 0.398438 17.09375 -0.359375 C 17.375 -1.128906 17.613281 -2.09375 17.8125 -3.25 C 18.007812 -4.40625 18.15625 -5.769531 18.25 -7.34375 C 18.34375 -8.914062 18.390625 -10.75 18.390625 -12.84375 Z M 18.390625 -12.84375 "/></g></g></g><g fill="#442a00" fill-opacity="1"><g transform="translate(334.830919, 166.047781)"><g><path d="M 2.109375 -16.21875 C 2.109375 -17.976562 2.414062 -19.515625 3.03125 -20.828125 C 3.644531 -22.140625 4.46875 -23.238281 5.5 -24.125 C 6.53125 -25.007812 7.722656 -25.671875 9.078125 -26.109375 C 10.441406 -26.554688 11.867188 -26.78125 13.359375 -26.78125 C 14.859375 -26.78125 16.273438 -26.582031 17.609375 -26.1875 C 18.953125 -25.789062 20.140625 -25.175781 21.171875 -24.34375 C 21.503906 -24.84375 21.769531 -25.367188 21.96875 -25.921875 C 22.175781 -26.472656 22.28125 -27.023438 22.28125 -27.578125 C 22.28125 -28.296875 22.085938 -28.867188 21.703125 -29.296875 C 21.316406 -29.734375 20.820312 -29.953125 20.21875 -29.953125 L 20.21875 -30.703125 C 20.601562 -30.816406 20.941406 -30.921875 21.234375 -31.015625 C 21.523438 -31.109375 21.789062 -31.179688 22.03125 -31.234375 C 22.269531 -31.285156 22.507812 -31.320312 22.75 -31.34375 C 22.988281 -31.375 23.253906 -31.390625 23.546875 -31.390625 C 24.359375 -31.390625 24.976562 -31.140625 25.40625 -30.640625 C 25.832031 -30.140625 26.046875 -29.453125 26.046875 -28.578125 C 26.046875 -28.066406 25.925781 -27.554688 25.6875 -27.046875 C 25.445312 -26.535156 25.144531 -26.046875 24.78125 -25.578125 C 24.425781 -25.117188 24.03125 -24.679688 23.59375 -24.265625 C 23.15625 -23.859375 22.738281 -23.5 22.34375 -23.1875 C 23.0625 -22.363281 23.617188 -21.398438 24.015625 -20.296875 C 24.410156 -19.203125 24.609375 -17.945312 24.609375 -16.53125 C 24.609375 -14.757812 24.300781 -13.191406 23.6875 -11.828125 C 23.082031 -10.472656 22.265625 -9.332031 21.234375 -8.40625 C 20.203125 -7.476562 19.003906 -6.773438 17.640625 -6.296875 C 16.285156 -5.828125 14.859375 -5.59375 13.359375 -5.59375 C 12.484375 -5.59375 11.625 -5.671875 10.78125 -5.828125 C 9.9375 -5.984375 9.144531 -6.207031 8.40625 -6.5 C 8.132812 -6.289062 7.898438 -6.03125 7.703125 -5.71875 C 7.503906 -5.414062 7.40625 -5.070312 7.40625 -4.6875 C 7.40625 -4.050781 7.675781 -3.578125 8.21875 -3.265625 C 8.769531 -2.960938 9.5 -2.742188 10.40625 -2.609375 C 11.320312 -2.472656 12.359375 -2.382812 13.515625 -2.34375 C 14.671875 -2.3125 15.851562 -2.253906 17.0625 -2.171875 C 18.269531 -2.097656 19.453125 -1.953125 20.609375 -1.734375 C 21.765625 -1.523438 22.796875 -1.175781 23.703125 -0.6875 C 24.617188 -0.195312 25.347656 0.46875 25.890625 1.3125 C 26.441406 2.15625 26.71875 3.25 26.71875 4.59375 C 26.71875 5.570312 26.507812 6.453125 26.09375 7.234375 C 25.6875 8.015625 25.132812 8.703125 24.4375 9.296875 C 23.738281 9.890625 22.929688 10.394531 22.015625 10.8125 C 21.097656 11.238281 20.125 11.582031 19.09375 11.84375 C 18.070312 12.113281 17.03125 12.304688 15.96875 12.421875 C 14.914062 12.546875 13.910156 12.609375 12.953125 12.609375 C 11.191406 12.609375 9.609375 12.519531 8.203125 12.34375 C 6.804688 12.164062 5.617188 11.882812 4.640625 11.5 C 3.660156 11.125 2.90625 10.632812 2.375 10.03125 C 1.84375 9.425781 1.578125 8.707031 1.578125 7.875 C 1.578125 7.269531 1.710938 6.710938 1.984375 6.203125 C 2.265625 5.691406 2.628906 5.222656 3.078125 4.796875 C 3.535156 4.378906 4.046875 4.003906 4.609375 3.671875 C 5.179688 3.335938 5.757812 3.023438 6.34375 2.734375 C 5.488281 2.367188 4.769531 1.820312 4.1875 1.09375 C 3.613281 0.363281 3.328125 -0.601562 3.328125 -1.8125 C 3.328125 -2.445312 3.4375 -3.035156 3.65625 -3.578125 C 3.882812 -4.117188 4.175781 -4.613281 4.53125 -5.0625 C 4.882812 -5.519531 5.269531 -5.929688 5.6875 -6.296875 C 6.101562 -6.671875 6.507812 -6.988281 6.90625 -7.25 C 6.207031 -7.664062 5.5625 -8.164062 4.96875 -8.75 C 4.375 -9.34375 3.863281 -10.015625 3.4375 -10.765625 C 3.019531 -11.515625 2.691406 -12.34375 2.453125 -13.25 C 2.222656 -14.164062 2.109375 -15.15625 2.109375 -16.21875 Z M 16.84375 -16.4375 C 16.84375 -17.425781 16.789062 -18.394531 16.6875 -19.34375 C 16.582031 -20.289062 16.398438 -21.132812 16.140625 -21.875 C 15.890625 -22.613281 15.539062 -23.207031 15.09375 -23.65625 C 14.644531 -24.113281 14.066406 -24.34375 13.359375 -24.34375 C 12.648438 -24.34375 12.070312 -24.109375 11.625 -23.640625 C 11.1875 -23.171875 10.835938 -22.550781 10.578125 -21.78125 C 10.316406 -21.019531 10.132812 -20.148438 10.03125 -19.171875 C 9.925781 -18.203125 9.875 -17.21875 9.875 -16.21875 C 9.875 -15.207031 9.925781 -14.210938 10.03125 -13.234375 C 10.132812 -12.253906 10.316406 -11.375 10.578125 -10.59375 C 10.835938 -9.820312 11.1875 -9.195312 11.625 -8.71875 C 12.070312 -8.25 12.648438 -8.015625 13.359375 -8.015625 C 14.066406 -8.015625 14.644531 -8.265625 15.09375 -8.765625 C 15.539062 -9.265625 15.890625 -9.914062 16.140625 -10.71875 C 16.398438 -11.519531 16.582031 -12.414062 16.6875 -13.40625 C 16.789062 -14.40625 16.84375 -15.414062 16.84375 -16.4375 Z M 20.765625 6.65625 C 20.765625 6.101562 20.546875 5.648438 20.109375 5.296875 C 19.679688 4.941406 19.117188 4.65625 18.421875 4.4375 C 17.734375 4.226562 16.945312 4.066406 16.0625 3.953125 C 15.175781 3.847656 14.273438 3.765625 13.359375 3.703125 C 12.453125 3.640625 11.566406 3.582031 10.703125 3.53125 C 9.847656 3.476562 9.097656 3.410156 8.453125 3.328125 C 8.097656 3.585938 7.75 3.867188 7.40625 4.171875 C 7.070312 4.472656 6.78125 4.789062 6.53125 5.125 C 6.289062 5.457031 6.09375 5.804688 5.9375 6.171875 C 5.78125 6.546875 5.703125 6.921875 5.703125 7.296875 C 5.703125 7.953125 5.890625 8.5 6.265625 8.9375 C 6.640625 9.375 7.148438 9.722656 7.796875 9.984375 C 8.441406 10.242188 9.191406 10.421875 10.046875 10.515625 C 10.898438 10.617188 11.800781 10.671875 12.75 10.671875 C 14 10.671875 15.125 10.5625 16.125 10.34375 C 17.125 10.132812 17.96875 9.84375 18.65625 9.46875 C 19.34375 9.101562 19.863281 8.679688 20.21875 8.203125 C 20.582031 7.722656 20.765625 7.207031 20.765625 6.65625 Z M 20.765625 6.65625 "/></g></g></g><g fill="#c25700" fill-opacity="1"><g transform="translate(243.373072, 191.102419)"><g><path d="M 0.765625 0 L 0.765625 -10.265625 L 7.515625 -10.265625 C 8.671875 -10.265625 9.566406 -10.019531 10.203125 -9.53125 C 10.847656 -9.039062 11.171875 -8.351562 11.171875 -7.46875 C 11.171875 -6.925781 11.019531 -6.460938 10.71875 -6.078125 C 10.414062 -5.691406 9.992188 -5.421875 9.453125 -5.265625 L 9.453125 -5.25 C 10.078125 -5.113281 10.5625 -4.832031 10.90625 -4.40625 C 11.257812 -3.988281 11.4375 -3.46875 11.4375 -2.84375 C 11.4375 -1.957031 11.101562 -1.257812 10.4375 -0.75 C 9.78125 -0.25 8.859375 0 7.671875 0 Z M 3.453125 -6.015625 L 6.875 -6.015625 C 7.382812 -6.015625 7.78125 -6.125 8.0625 -6.34375 C 8.351562 -6.570312 8.5 -6.878906 8.5 -7.265625 C 8.5 -7.660156 8.351562 -7.96875 8.0625 -8.1875 C 7.78125 -8.40625 7.382812 -8.515625 6.875 -8.515625 L 3.453125 -8.515625 Z M 3.4375 -1.78125 L 6.984375 -1.78125 C 7.523438 -1.78125 7.953125 -1.894531 8.265625 -2.125 C 8.585938 -2.363281 8.75 -2.6875 8.75 -3.09375 C 8.75 -3.519531 8.585938 -3.851562 8.265625 -4.09375 C 7.953125 -4.332031 7.523438 -4.453125 6.984375 -4.453125 L 3.4375 -4.453125 Z M 3.4375 -1.78125 "/></g></g></g><g fill="#c25700" fill-opacity="1"><g transform="translate(256.685694, 191.102419)"><g><path d="M 0.765625 0 L 0.765625 -10.265625 L 3.453125 -10.265625 L 3.453125 -2.15625 L 8.78125 -2.15625 L 8.78125 0 Z M 0.765625 0 "/></g></g></g><g fill="#c25700" fill-opacity="1"><g transform="translate(267.214826, 191.102419)"><g><path d="M 6.984375 0.359375 C 5.679688 0.359375 4.539062 0.128906 3.5625 -0.328125 C 2.59375 -0.785156 1.832031 -1.425781 1.28125 -2.25 C 0.738281 -3.070312 0.46875 -4.035156 0.46875 -5.140625 C 0.46875 -6.242188 0.738281 -7.207031 1.28125 -8.03125 C 1.832031 -8.851562 2.59375 -9.488281 3.5625 -9.9375 C 4.539062 -10.394531 5.679688 -10.625 6.984375 -10.625 C 8.285156 -10.625 9.425781 -10.394531 10.40625 -9.9375 C 11.394531 -9.488281 12.160156 -8.851562 12.703125 -8.03125 C 13.242188 -7.207031 13.515625 -6.242188 13.515625 -5.140625 C 13.515625 -4.035156 13.242188 -3.070312 12.703125 -2.25 C 12.160156 -1.425781 11.394531 -0.785156 10.40625 -0.328125 C 9.425781 0.128906 8.285156 0.359375 6.984375 0.359375 Z M 6.984375 -1.75 C 7.753906 -1.75 8.425781 -1.890625 9 -2.171875 C 9.570312 -2.453125 10.015625 -2.847656 10.328125 -3.359375 C 10.648438 -3.867188 10.8125 -4.460938 10.8125 -5.140625 C 10.8125 -5.816406 10.648438 -6.40625 10.328125 -6.90625 C 10.015625 -7.414062 9.570312 -7.8125 9 -8.09375 C 8.425781 -8.375 7.753906 -8.515625 6.984375 -8.515625 C 6.222656 -8.515625 5.550781 -8.375 4.96875 -8.09375 C 4.394531 -7.8125 3.945312 -7.414062 3.625 -6.90625 C 3.3125 -6.40625 3.15625 -5.816406 3.15625 -5.140625 C 3.15625 -4.460938 3.3125 -3.867188 3.625 -3.359375 C 3.945312 -2.847656 4.394531 -2.453125 4.96875 -2.171875 C 5.550781 -1.890625 6.222656 -1.75 6.984375 -1.75 Z M 6.984375 -1.75 "/></g></g></g><g fill="#c25700" fill-opacity="1"><g transform="translate(282.734058, 191.102419)"><g><path d="M 6.359375 0.296875 C 5.203125 0.296875 4.179688 0.0703125 3.296875 -0.375 C 2.410156 -0.820312 1.71875 -1.445312 1.21875 -2.25 C 0.71875 -3.0625 0.46875 -4 0.46875 -5.0625 C 0.46875 -5.875 0.617188 -6.617188 0.921875 -7.296875 C 1.234375 -7.984375 1.664062 -8.570312 2.21875 -9.0625 C 2.769531 -9.550781 3.425781 -9.925781 4.1875 -10.1875 C 4.957031 -10.457031 5.800781 -10.59375 6.71875 -10.59375 C 7.613281 -10.59375 8.4375 -10.453125 9.1875 -10.171875 C 9.9375 -9.898438 10.566406 -9.515625 11.078125 -9.015625 C 11.585938 -8.523438 11.921875 -7.945312 12.078125 -7.28125 L 9.609375 -6.796875 C 9.492188 -7.140625 9.289062 -7.441406 9 -7.703125 C 8.71875 -7.960938 8.378906 -8.160156 7.984375 -8.296875 C 7.585938 -8.441406 7.160156 -8.515625 6.703125 -8.515625 C 6.015625 -8.515625 5.398438 -8.367188 4.859375 -8.078125 C 4.328125 -7.796875 3.910156 -7.394531 3.609375 -6.875 C 3.304688 -6.363281 3.15625 -5.769531 3.15625 -5.09375 C 3.15625 -4.425781 3.320312 -3.832031 3.65625 -3.3125 C 3.988281 -2.800781 4.453125 -2.398438 5.046875 -2.109375 C 5.640625 -1.828125 6.320312 -1.6875 7.09375 -1.6875 C 7.75 -1.6875 8.335938 -1.796875 8.859375 -2.015625 C 9.390625 -2.242188 9.8125 -2.550781 10.125 -2.9375 C 10.445312 -3.332031 10.617188 -3.773438 10.640625 -4.265625 L 5.203125 -4.265625 L 5.203125 -5.828125 L 13.234375 -5.828125 L 13.234375 0 L 11.1875 0 L 11 -1.9375 L 10.984375 -1.9375 C 10.578125 -1.238281 9.960938 -0.691406 9.140625 -0.296875 C 8.316406 0.0976562 7.390625 0.296875 6.359375 0.296875 Z M 6.359375 0.296875 "/></g></g></g></svg>